<svg xmlns="http://www.w3.org/2000/svg" viewBox="0 0 30 30" width="30px" height="30px"><path fill="#8bb7f0" d="M1.5,5c0-2.191,1.309-3.5,3.5-3.5h20c2.191,0,3.5,1.309,3.5,3.5v17c0,2.191-1.309,3.5-3.5,3.5H4.793 L1.5,28.793V5z"/><path fill="#4e7ab5" d="M25,2c1.907,0,3,1.093,3,3v17c0,1.907-1.093,3-3,3H5H4.586l-0.293,0.293L2,27.586V5 c0-1.907,1.093-3,3-3H25 M25,1H5C2.568,1,1,2.525,1,5v25l4-4h20c2.432,0,4-1.525,4-4V5C29,2.525,27.432,1,25,1L25,1z"/><path fill="#fff" d="M15 5.875A1.25 1.25 0 1 0 15 8.375 1.25 1.25 0 1 0 15 5.875zM16 19L16 10 13 10 13 11 14 11 14 19 13 19 13 20 17 20 17 19z"/></svg>